<svg width="24" height="24" viewBox="0 0 24 24" fill="none" xmlns="http://www.w3.org/2000/svg">
<path d="M4.041 4.25C3.32821 4.25 2.75 4.82821 2.75 5.541V18.5C2.75 19.1908 3.30921 19.75 4 19.75H20C20.6908 19.75 21.25 19.1908 21.25 18.5V5.5C21.25 4.80921 20.6908 4.25 20 4.25H4.041ZM1.25 5.541C1.25 3.99979 2.49979 2.75 4.041 2.75H20C21.5192 2.75 22.75 3.98079 22.75 5.5V18.5C22.75 20.0192 21.5192 21.25 20 21.25H4C2.48079 21.25 1.25 20.0192 1.25 18.5V5.541ZM9.56067 8.68934C8.97488 8.10355 8.02514 8.10355 7.43935 8.68934C6.85356 9.27513 6.85356 10.2249 7.43935 10.8107C8.02514 11.3964 8.97488 11.3964 9.56067 10.8107C10.1465 10.2249 10.1465 9.27513 9.56067 8.68934ZM6.37869 7.62868C7.55026 6.45711 9.44976 6.45711 10.6213 7.62868C11.7929 8.80025 11.7929 10.6997 10.6213 11.8713C9.44976 13.0429 7.55026 13.0429 6.37869 11.8713C5.20712 10.6997 5.20712 8.80025 6.37869 7.62868ZM15 8.75C14.5858 8.75 14.25 9.08579 14.25 9.5C14.25 9.91421 14.5858 10.25 15 10.25H19C19.4142 10.25 19.75 9.91421 19.75 9.5C19.75 9.08579 19.4142 8.75 19 8.75H15ZM14.25 13.5C14.25 13.0858 14.5858 12.75 15 12.75H17.4C17.8142 12.75 18.15 13.0858 18.15 13.5C18.15 13.9142 17.8142 14.25 17.4 14.25H15C14.5858 14.25 14.25 13.9142 14.25 13.5ZM7.854 13.75C6.86498 13.75 5.91303 14.1234 5.18745 14.7957C4.75819 15.1928 4.42444 15.6801 4.20831 16.2223C4.05493 16.607 4.24251 17.0433 4.62728 17.1967C5.01205 17.3501 5.4483 17.1625 5.60169 16.7777C5.73552 16.442 5.94169 16.1413 6.2063 15.8966C6.65469 15.481 7.24313 15.25 7.854 15.25H9.146C9.75687 15.25 10.3448 15.4805 10.7932 15.8961C11.0578 16.1408 11.2645 16.442 11.3983 16.7777C11.5517 17.1625 11.988 17.3501 12.3727 17.1967C12.7575 17.0433 12.9451 16.607 12.7917 16.2223C12.5755 15.6801 12.2418 15.1928 11.8124 14.7956C11.0869 14.1235 10.1349 13.75 9.146 13.75H7.854Z" fill="#666666"/>
</svg>
